HIERARCHY
ROOT Hips
{
    OFFSET 0.000000 0.000000 0.000000
    CHANNELS 6 Xposition Yposition Zposition Zrotation Xrotation Yrotation
    JOINT Spine
    {
        OFFSET -0.000000 0.081343 0.000000
        CHANNELS 3 Zrotation Xrotation Yrotation
        JOINT Spine1
        {
            OFFSET -0.000000 0.243280 0.000000
            CHANNELS 3 Zrotation Xrotation Yrotation
            JOINT Neck
            {
                OFFSET -0.000000 0.242281 0.022026
                CHANNELS 3 Zrotation Xrotation Yrotation
                JOINT Head
                {
                    OFFSET -0.000000 0.149025 -0.021289
                    CHANNELS 3 Zrotation Xrotation Yrotation
                    End Site
                    {
                        OFFSET -0.000000 0.198396 0.000000
                    }
                }
            }
            JOINT LeftShoulder
            {
                OFFSET 0.039707 0.224479 -0.002125
                CHANNELS 3 Zrotation Xrotation Yrotation
                JOINT LeftArm
                {
                    OFFSET 0.116942 0.000000 0.000000
                    CHANNELS 3 Zrotation Xrotation Yrotation
                    JOINT LeftForeArm
                    {
                        OFFSET 0.282002 0.000000 0.000000
                        CHANNELS 3 Zrotation Xrotation Yrotation
                        JOINT LeftHand
                        {
                            OFFSET 0.358743 0.000000 0.000000
                            CHANNELS 3 Zrotation Xrotation Yrotation
                            End Site
                            {
                                OFFSET 0.148797 0.000000 0.000000
                            }
                        }
                    }
                }
            }
            JOINT RightShoulder
            {
                OFFSET -0.039404 0.224479 -0.002125
                CHANNELS 3 Zrotation Xrotation Yrotation
                JOINT RightArm
                {
                    OFFSET -0.116942 0.000000 0.000000
                    CHANNELS 3 Zrotation Xrotation Yrotation
                    JOINT RightForeArm
                    {
                        OFFSET -0.282002 0.000000 0.000000
                        CHANNELS 3 Zrotation Xrotation Yrotation
                        JOINT RightHand
                        {
                            OFFSET -0.358743 0.000000 0.000000
                            CHANNELS 3 Zrotation Xrotation Yrotation
                            End Site
                            {
                                OFFSET -0.148797 0.000000 0.000000
                            }
                        }
                    }
                }
            }
        }
    }
    JOINT LeftUpLeg
    {
        OFFSET 0.099198 0.000000 0.000000
        CHANNELS 3 Zrotation Xrotation Yrotation
        JOINT LeftLeg
        {
            OFFSET -0.000000 -0.332973 0.000000
            CHANNELS 3 Zrotation Xrotation Yrotation
            JOINT LeftFoot
            {
                OFFSET -0.000000 -0.491254 0.000000
                CHANNELS 3 Zrotation Xrotation Yrotation
                JOINT LeftToeBase
                {
                    OFFSET -0.000000 -0.064479 0.148797
                    CHANNELS 3 Zrotation Xrotation Yrotation
                    End Site
                    {
                        OFFSET -0.000000 0.000000 0.039679
                    }
                }
            }
        }
    }
    JOINT RightUpLeg
    {
        OFFSET -0.099198 0.000000 0.000000
        CHANNELS 3 Zrotation Xrotation Yrotation
        JOINT RightLeg
        {
            OFFSET -0.000000 -0.332973 0.000000
            CHANNELS 3 Zrotation Xrotation Yrotation
            JOINT RightFoot
            {
                OFFSET -0.000000 -0.491254 0.000000
                CHANNELS 3 Zrotation Xrotation Yrotation
                JOINT RightToeBase
                {
                    OFFSET -0.000000 -0.064479 0.148797
                    CHANNELS 3 Zrotation Xrotation Yrotation
                    End Site
                    {
                        OFFSET -0.000000 0.000000 0.039679
                    }
                }
            }
        }
    }
}
MOTION
Frames:    11
Frame Time:    0.010000
-0.594461    0.883829    -0.493089    1.265382    1.219124    34.954525    3.081722    0.385255    0.972221    -3.567873    2.103180    0.392313    5.918604    20.905313    10.034499    -11.711569    -6.865323    8.365977    -11.603651    21.242567    12.473311    -56.811653    -13.064567    -16.837543    41.136036    -45.554081    -93.983345    54.098618    -4.753052    -4.559600    -0.588469    12.023737    2.828354    38.123730    -0.239680    -0.526441    -53.155396    -44.471058    67.190453    -9.343105    -10.829998    8.854085    13.432020    -17.270473    7.578641    -7.889110    27.709225    2.645066    6.724080    -6.199139    4.307246    0.000000    0.000000    0.000000    -5.369185    -2.502535    -9.697316    3.703881    16.216137    -8.665260    13.617599    -12.974588    -7.481237    0.000000    0.000000    0.000000    
-0.596665    0.883788    -0.492559    1.176399    1.257963    35.045254    3.109465    0.423239    0.920142    -3.456636    2.010327    0.370577    5.842994    20.952744    10.056517    -11.739947    -6.924438    8.376698    -11.459106    21.111429    12.359702    -55.950531    -8.392726    -16.594160    48.597256    -49.185223    -86.327438    53.720348    -6.286750    -2.821836    -0.727863    12.299595    2.764611    38.012455    -0.650073    -0.298641    -50.890961    -44.864845    69.388824    -10.499015    -11.938415    10.046087    13.161990    -17.281448    7.198829    -8.130550    27.488665    3.038696    6.789983    -6.495866    4.407112    0.000000    0.000000    0.000000    -5.099177    -2.287189    -8.780233    3.945973    15.595351    -10.008700    13.479294    -12.882887    -7.186978    0.000000    0.000000    0.000000    
-0.598748    0.883686    -0.491941    1.082786    1.283826    35.077045    3.153272    0.441312    0.874304    -3.398873    1.958781    0.352832    5.822688    20.964514    10.077894    -11.763591    -6.942561    8.392229    -11.293813    20.983704    12.308750    -55.869663    -8.393007    -16.526136    48.592072    -49.192898    -86.349319    53.718903    -6.285295    -2.826082    -0.788539    12.174088    2.812999    37.963200    -0.795613    -0.402079    -50.911106    -44.787487    69.502243    -10.016921    -11.663310    9.816445    12.909074    -17.290545    7.498958    -8.009257    27.382544    3.118986    6.855093    -6.841175    4.129389    0.000000    0.000000    0.000000    -4.937658    -2.438981    -10.414552    3.544984    15.798347    -8.285443    13.508169    -13.038305    -7.218749    0.000000    0.000000    0.000000    
-0.600707    0.883560    -0.491219    0.975203    1.285694    35.100517    3.172575    0.442295    0.860357    -3.255421    1.929014    0.345120    5.785287    21.014322    10.104283    -11.819253    -6.964242    8.407526    -11.165863    20.881033    12.194736    -56.523533    -13.075572    -16.569176    41.315834    -45.600365    -93.881416    53.773273    -4.392962    -4.073188    -0.882473    12.113729    2.823033    37.857193    -1.136573    -0.461266    -49.849575    -44.728130    70.551445    -10.247159    -11.806216    9.991938    12.634984    -17.246889    7.531153    -7.825205    27.146076    2.897773    6.707371    -6.985658    4.248314    0.000000    0.000000    0.000000    -4.712295    -2.447295    -10.645021    3.563270    15.643570    -8.188306    13.275366    -12.899765    -7.286104    0.000000    0.000000    0.000000    
-0.602547    0.883355    -0.490405    0.864064    1.275084    35.100933    3.182278    0.429691    0.839994    -3.094435    1.914834    0.334994    5.724134    21.057161    10.133487    -11.819803    -6.961391    8.437806    -11.126759    21.104050    12.219616    -56.550842    -13.316340    -16.876596    41.066551    -45.505817    -94.089958    53.779068    -4.461370    -4.152556    -0.941921    12.064489    2.868624    37.822968    -1.265630    -0.515107    -49.909744    -44.709999    70.635193    -10.031365    -11.611010    9.639300    12.440142    -17.151453    7.597259    -7.681771    26.914696    2.822434    7.694746    -7.602554    3.723536    0.000000    0.000000    0.000000    -4.440359    -2.233727    -9.437882    3.913332    15.103185    -9.311220    12.782465    -13.010103    -7.369654    0.000000    0.000000    0.000000    
-0.604361    0.883119    -0.489496    0.734279    1.247802    35.041157    3.204279    0.423069    0.828469    -2.960682    1.897714    0.328468    5.842000    21.534771    10.142008    -12.284848    -7.683240    8.310203    -11.023448    21.015738    12.211472    -56.486465    -13.297544    -16.842686    41.134193    -45.548264    -94.014954    53.712727    -4.459185    -4.086961    -0.952580    12.085411    2.913462    37.729904    -1.531590    -0.495727    -49.474857    -44.638451    71.171280    -10.165937    -11.514171    9.505664    12.258186    -16.975117    7.366817    -7.772418    26.476931    3.326360    7.768158    -7.715739    3.691850    0.000000    0.000000    0.000000    -4.207661    -2.397000    -10.931599    3.524042    15.344899    -7.522830    12.606283    -13.097916    -7.571640    0.000000    0.000000    0.000000    
-0.606018    0.882864    -0.488561    0.618251    1.218616    34.975315    3.218443    0.427308    0.783041    -2.926599    1.981396    0.315021    5.906382    20.728733    10.264585    -11.953763    -6.496338    8.584667    -10.789628    20.938158    12.438755    -56.572067    -13.137437    -16.988008    41.104004    -45.610226    -94.083878    53.637398    -4.466472    -3.976571    -0.875666    12.000075    2.776945    37.706871    -1.226805    -0.272403    -49.898884    -44.768913    70.823364    -10.262091    -11.549242    9.325597    12.030660    -16.761177    7.282649    -7.710983    26.003450    3.539811    7.827265    -7.710283    3.725024    0.000000    0.000000    0.000000    -3.867736    -2.403807    -11.387680    3.221325    15.250585    -7.296834    12.698006    -13.036698    -7.190525    0.000000    0.000000    0.000000    
-0.607752    0.882566    -0.487222    0.462537    1.120355    34.820381    3.184778    0.399917    0.849625    -2.683692    2.025817    0.333701    6.066455    21.178230    10.259456    -12.426363    -7.136591    8.451615    -10.741226    21.160383    12.466122    -56.663879    -13.348217    -17.260593    41.005119    -45.524746    -94.172173    53.534882    -4.413538    -4.004056    -0.848905    11.994905    2.755837    37.641933    -1.264909    -0.205150    -49.456779    -44.808311    71.341438    -10.757645    -11.667706    9.333415    11.967264    -16.401388    7.054269    -7.808405    25.400673    4.061773    7.803344    -7.742053    3.664824    0.000000    0.000000    0.000000    -3.551871    -2.354556    -11.033245    3.340011    15.124737    -7.108780    12.433735    -13.144650    -7.594283    0.000000    0.000000    0.000000    
-0.609269    0.882232    -0.486001    0.314196    1.048682    34.698215    3.173315    0.354708    0.850487    -2.501989    2.049597    0.330927    6.132346    21.222038    10.319721    -12.526708    -7.029248    8.511471    -10.669836    21.119680    12.454551    -55.878300    -8.805658    -17.065149    48.335503    -49.074631    -86.629471    53.294373    -5.966898    -2.446237    -0.811684    11.966314    2.758722    37.583241    -1.389981    -0.125240    -49.229786    -44.688549    71.748283    -11.061687    -11.417501    9.177629    11.818180    -16.100515    6.737258    -7.985307    24.808834    4.756575    8.220017    -7.508086    4.114594    0.000000    0.000000    0.000000    -3.279508    -2.272672    -10.741828    3.468923    14.938532    -7.043862    12.198779    -13.230305    -7.840963    0.000000    0.000000    0.000000    
-0.610624    0.881913    -0.484616    0.177184    0.940318    34.577579    3.164839    0.314856    0.837049    -2.324240    2.089829    0.323532    6.180197    21.277719    10.371905    -12.563663    -6.909224    8.577039    -10.581653    20.928932    12.407034    -55.820534    -8.750053    -16.867779    48.382492    -49.098877    -86.548187    53.189064    -6.013273    -2.433426    -0.764702    11.925696    2.775531    37.580936    -1.343697    -0.075256    -49.318378    -44.646694    71.883881    -11.378859    -11.181244    9.036782    11.696675    -15.721669    6.427648    -7.932082    24.183126    4.950408    11.191794    -7.860137    4.123416    0.000000    0.000000    0.000000    -3.068558    -2.336528    -9.925749    3.799623    15.072218    -7.347993    11.953060    -13.320009    -8.325998    0.000000    0.000000    0.000000    
-0.612118    0.881425    -0.483159    -0.072673    0.844756    34.392254    3.194430    0.184679    0.876462    -2.097342    2.145772    0.332449    6.198564    21.346447    10.421015    -12.562051    -6.802110    8.645250    -10.491173    20.652983    12.310560    -56.450291    -13.244068    -16.726465    41.048164    -45.625004    -93.990623    53.345898    -4.681149    -4.048336    -0.709368    11.944349    2.785022    37.570663    -1.398714    0.048543    -49.201187    -44.637020    72.218445    -12.405379    -11.100133    9.005285    11.642662    -15.366353    5.878016    -7.842050    23.396461    4.900988    14.727721    -6.585041    5.919036    0.000000    0.000000    0.000000    -2.522857    -2.168636    -10.277876    3.477504    14.673878    -6.924001    11.847437    -13.283792    -8.103365    0.000000    0.000000    0.000000    
